<svg xmlns="http://www.w3.org/2000/svg" width="512" height="512" viewBox="0 0 512 512">
  <rect width="512" height="512" rx="115" fill="#1E3570"/>
  <rect width="512" height="512" rx="115" fill="none" stroke="#3558B8" stroke-width="6"/>
  <!-- shelf -->
  <rect x="70" y="365" width="372" height="8" rx="4" fill="#6888D8" opacity="0.45"/>
  <!-- book 1 teal -->
  <rect x="82" y="124" width="104" height="241" rx="16" fill="#28C4A0"/>
  <rect x="82" y="124" width="28" height="241" rx="14" fill="#50D8B8"/>
  <rect x="82" y="124" width="104" height="16" rx="10" fill="#50D8B8" opacity="0.55"/>
  <line x1="118" y1="228" x2="182" y2="228" stroke="white" stroke-width="5" opacity="0.35"/>
  <line x1="118" y1="258" x2="182" y2="258" stroke="white" stroke-width="5" opacity="0.22"/>
  <line x1="118" y1="288" x2="182" y2="288" stroke="white" stroke-width="5" opacity="0.14"/>
  <!-- book 2 purple tallest -->
  <rect x="202" y="92" width="110" height="273" rx="16" fill="#7840C8"/>
  <rect x="202" y="92" width="28" height="273" rx="14" fill="#9C68E0"/>
  <rect x="202" y="92" width="110" height="16" rx="10" fill="#9C68E0" opacity="0.55"/>
  <line x1="240" y1="216" x2="308" y2="216" stroke="white" stroke-width="5" opacity="0.35"/>
  <line x1="240" y1="246" x2="308" y2="246" stroke="white" stroke-width="5" opacity="0.22"/>
  <line x1="240" y1="276" x2="308" y2="276" stroke="white" stroke-width="5" opacity="0.14"/>
  <!-- book 3 blue -->
  <rect x="328" y="140" width="100" height="225" rx="16" fill="#4870D0"/>
  <rect x="328" y="140" width="26" height="225" rx="14" fill="#6890E4"/>
  <rect x="328" y="140" width="100" height="16" rx="10" fill="#6890E4" opacity="0.55"/>
  <line x1="362" y1="242" x2="424" y2="242" stroke="white" stroke-width="5" opacity="0.35"/>
  <line x1="362" y1="272" x2="424" y2="272" stroke="white" stroke-width="5" opacity="0.22"/>
  <line x1="362" y1="302" x2="424" y2="302" stroke="white" stroke-width="5" opacity="0.14"/>
</svg>
